<svg width="45" height="42" viewBox="0 0 45 42" fill="none" xmlns="http://www.w3.org/2000/svg">
<g clip-path="url(#clip0_42_182)">
<path d="M27.8743 25.7206L28.7023 25.4446L27.7702 23.634L26.9424 23.9101L27.8743 25.7206ZM30.8594 26.0603L32.9563 28.3078L34.542 27.1718L32.4451 24.9244L30.8594 26.0603ZM32.487 30.9011L29.9048 31.762L30.8367 33.5726L33.419 32.7116L32.487 30.9011ZM28.5214 31.8163C26.4977 31.1808 21.4819 28.9919 17.8813 22.0928L15.9531 22.7478C19.8823 30.2765 25.4853 32.8304 28.0103 33.6233L28.5214 31.8163ZM17.8813 22.0928C14.4491 15.5164 15.0981 11.4137 15.6478 9.74223L13.583 9.02274C12.8911 11.1265 12.2847 15.7187 15.9531 22.7478L17.8813 22.0928ZM22.6349 15.6813L23.1562 15.5074L22.2243 13.6969L21.7029 13.8707L22.6349 15.6813ZM25.1671 11.419L24.2509 8.77797L22.2063 9.16383L23.1225 11.8049L25.1671 11.419ZM18.6881 6.03619L15.8349 6.98752L16.7669 8.79809L19.6201 7.84676L18.6881 6.03619ZM22.1689 14.776C21.7029 13.8707 21.7016 13.8711 21.7003 13.8716C21.6999 13.8717 21.6985 13.8722 21.6976 13.8725C21.6959 13.8731 21.694 13.8737 21.6922 13.8744C21.6885 13.8756 21.6846 13.877 21.6807 13.8784C21.6727 13.8812 21.6642 13.8844 21.6553 13.8878C21.6373 13.8947 21.6174 13.9028 21.5957 13.9123C21.5524 13.9312 21.5021 13.9558 21.4469 13.9872C21.3363 14.0503 21.2071 14.1405 21.0772 14.2671C20.8122 14.5254 20.5708 14.9096 20.4565 15.4599C20.2328 16.5361 20.5034 18.1863 21.8567 20.7793L23.7848 20.1243C22.5184 17.6977 22.463 16.51 22.5684 16.0031C22.6185 15.7619 22.7054 15.6684 22.7276 15.6469C22.7411 15.6335 22.7452 15.6332 22.7321 15.6408C22.7256 15.6445 22.715 15.65 22.6991 15.6569C22.6913 15.6604 22.682 15.6642 22.6714 15.6683C22.666 15.6703 22.6605 15.6724 22.6543 15.6746C22.6513 15.6757 22.6482 15.6768 22.6449 15.6779C22.6433 15.6784 22.6416 15.679 22.64 15.6796C22.6392 15.6799 22.6379 15.6803 22.6374 15.6804C22.6361 15.6808 22.6349 15.6813 22.1689 14.776ZM21.8567 20.7793C23.2104 23.3732 24.4864 24.6854 25.596 25.313C26.1631 25.6337 26.6713 25.7659 27.0849 25.797C27.2876 25.8122 27.458 25.8024 27.5913 25.784C27.6579 25.7748 27.715 25.7635 27.7622 25.7522C27.7858 25.7466 27.8069 25.741 27.8256 25.7356C27.8351 25.733 27.8438 25.7304 27.8519 25.7279C27.856 25.7266 27.8598 25.7253 27.8636 25.7241C27.8654 25.7235 27.8673 25.7229 27.8691 25.7223C27.87 25.722 27.8714 25.7216 27.8718 25.7215C27.873 25.7211 27.8743 25.7206 27.4084 24.8153C26.9424 23.9101 26.9437 23.9096 26.9449 23.9092C26.9453 23.9091 26.9466 23.9087 26.9475 23.9084C26.9491 23.9078 26.9508 23.9073 26.9524 23.9067C26.9558 23.9058 26.9588 23.9047 26.9619 23.9037C26.9682 23.9018 26.9741 23.9001 26.9796 23.8984C26.9906 23.8953 27.0005 23.8927 27.0091 23.8908C27.0262 23.8867 27.0385 23.8846 27.0461 23.8835C27.0616 23.8814 27.0577 23.8836 27.0351 23.8819C26.9977 23.879 26.8504 23.8617 26.5979 23.7189C26.0687 23.4197 25.0509 22.5501 23.7848 20.1243L21.8567 20.7793ZM24.2509 8.77797C23.5102 6.64306 20.9009 5.29836 18.6881 6.03619L19.6201 7.84676C20.5865 7.5245 21.8381 8.10272 22.2063 9.16383L24.2509 8.77797ZM15.6478 9.74223C15.7833 9.33035 16.1672 8.99805 16.7669 8.79809L15.8349 6.98752C14.8582 7.31319 13.9329 7.95896 13.583 9.02274L15.6478 9.74223ZM29.9048 31.762C29.4052 31.9287 28.9348 31.9461 28.5214 31.8163L28.0103 33.6233C29.0356 33.9452 30.0232 33.8439 30.8367 33.5726L29.9048 31.762ZM23.1562 15.5074C24.9458 14.9107 25.7698 13.1561 25.1671 11.419L23.1225 11.8049C23.4157 12.65 23.0033 13.4371 22.2243 13.6969L23.1562 15.5074ZM32.9563 28.3078C33.8539 29.2698 33.5366 30.551 32.487 30.9011L33.419 32.7116C35.8553 31.8993 36.3377 29.0963 34.542 27.1718L32.9563 28.3078ZM28.7023 25.4446C29.4003 25.2119 30.2804 25.4399 30.8594 26.0603L32.4451 24.9244C31.2558 23.6497 29.3612 23.1036 27.7702 23.634L28.7023 25.4446Z" fill="white"/>
</g>
<defs>
<clipPath id="clip0_42_182">
<rect width="35" height="30" fill="white" transform="translate(11.8934 0.536621) rotate(22)"/>
</clipPath>
</defs>
</svg>
